<svg width="100" height="100" viewBox="0 0 100 100" xmlns="http://www.w3.org/2000/svg">
  <defs>
    <linearGradient id="ethNotebookGradient" x1="0%" y1="0%" x2="100%" y2="100%">
      <stop offset="0%" style="stop-color:#7C3AED; stop-opacity:1" />
      <stop offset="30%" style="stop-color:#6D28D9; stop-opacity:0.98" />
      <stop offset="60%" style="stop-color:#4F46E5; stop-opacity:0.92" />
      <stop offset="100%" style="stop-color:#312E81; stop-opacity:1" />
    </linearGradient>
    <linearGradient id="ethShadowGradient" x1="0%" y1="100%" x2="100%" y2="0%">
      <stop offset="0%" style="stop-color:#000000; stop-opacity:0.45" />
      <stop offset="100%" style="stop-color:#000000; stop-opacity:0" />
    </linearGradient>
    <linearGradient id="ethPageGradient" x1="0%" y1="0%" x2="0%" y2="100%">
      <stop offset="0%" style="stop-color:#EDE9FE; stop-opacity:0.65" />
      <stop offset="100%" style="stop-color:#C7D2FE; stop-opacity:0.35" />
    </linearGradient>
    <linearGradient id="ethHighlightGradient" x1="0%" y1="0%" x2="100%" y2="100%">
      <stop offset="0%" style="stop-color:#FFFFFF; stop-opacity:0.4" />
      <stop offset="100%" style="stop-color:#A5B4FC; stop-opacity:0" />
    </linearGradient>
    <filter id="ethGlow" x="-90%" y="-90%" width="280%" height="280%">
      <feGaussianBlur stdDeviation="4" result="glowBlur" />
      <feFlood flood-color="#7C3AED" flood-opacity="0.4" />
      <feComposite operator="in" in2="glowBlur" />
      <feMerge>
        <feMergeNode />
        <feMergeNode in="SourceGraphic" />
      </feMerge>
    </filter>
    <filter id="ethBevel" x="-50%" y="-50%" width="200%" height="200%">
      <feGaussianBlur stdDeviation="1.2" result="bevelBlur" />
      <feSpecularLighting surfaceScale="6" specularConstant="1.2" specularExponent="15" lighting-color="#FFFFFF" in="bevelBlur" result="specOut">
        <fePointLight x="-600" y="-600" z="250" />
      </feSpecularLighting>
      <feComposite operator="in" in="specOut" in2="SourceAlpha" result="specOut" />
      <feComposite operator="arithmetic" k1="0" k2="1" k3="1.2" k4="0" in="specOut" in2="SourceGraphic" />
    </filter>
    <filter id="innerDepth" x="-30%" y="-30%" width="160%" height="160%">
      <feGaussianBlur stdDeviation="2" result="depthBlur" />
      <feOffset dx="2" dy="2" result="offsetBlur" />
      <feComposite operator="out" in="offsetBlur" in2="SourceAlpha" result="shadow" />
      <feMerge>
        <feMergeNode in="shadow" />
        <feMergeNode in="SourceGraphic" />
      </feMerge>
    </filter>
  </defs>
  <!-- Ethereum-inspired diamond base with notebook cover -->
  <path d="M50 0 L100 50 L50 100 L0 50 Z" fill="url(#ethNotebookGradient)" filter="url(#ethGlow)" />
  <path d="M50 10 L90 50 L50 90 L10 50 Z" fill="url(#ethShadowGradient)" opacity="0.55" filter="url(#ethBevel)" />
  <!-- Notebook pages layered inside diamond -->
  <path d="M50 20 L80 50 L50 80 L20 50 Z" fill="url(#ethPageGradient)" opacity="0.85" filter="url(#innerDepth)" />
  <path d="M50 25 L75 50 L50 75 L25 50 Z" fill="#FFFFFF" opacity="0.92" />
  <!-- Spine and binding in diamond form -->
  <line x1="50" y1="0" x2="50" y2="100" stroke="#E0E7FF" stroke-width="3" stroke-opacity="0.65" />
  <line x1="45" y1="20" x2="45" y2="80" stroke="#D1D5DB" stroke-width="1.5" stroke-opacity="0.85" />
  <line x1="55" y1="20" x2="55" y2="80" stroke="#D1D5DB" stroke-width="1.5" stroke-opacity="0.85" />
  <!-- 3D facets and highlights -->
  <path d="M50 0 L100 50 L90 50 L50 10 Z" fill="url(#ethHighlightGradient)" opacity="0.4" />
  <path d="M50 100 L100 50 L90 50 L50 90 Z" fill="#818CF8" opacity="0.45" />
  <path d="M50 0 L0 50 L10 50 L50 10 Z" fill="url(#ethHighlightGradient)" opacity="0.4" />
  <path d="M50 100 L0 50 L10 50 L50 90 Z" fill="#818CF8" opacity="0.45" />
  <!-- Sharp edges and subtle sparkle -->
  <polygon points="50,15 85,50 50,85 15,50" stroke="#FFFFFF" stroke-width="1" fill="none" opacity="0.75" />
  <circle cx="50" cy="50" r="6" fill="#FFFFFF" opacity="0.3" filter="url(#ethBevel)" /> <!-- Center 3D highlight -->
</svg>